<svg version="1.1"
	 xmlns="http://www.w3.org/2000/svg" xmlns:xlink="http://www.w3.org/1999/xlink" xmlns:a="http://ns.adobe.com/AdobeSVGViewerExtensions/3.0/"
	 x="0px" y="0px" width="24.1px" height="23.2px" viewBox="0 0 24.1 23.2" style="enable-background:new 0 0 24.1 23.2;"
	 xml:space="preserve">
<path class="st0" d="M24.1,9.1C23.9,4,17.2-1.2,9.5,0.2C1.8,1.7,0.3,7.5,0.3,7.5c-0.2,1-0.9,3.4,0.8,6.7c1.7,3.3,6.4,5.3,8.7,5.3
	c2.2,0.1,1.4,1.5,1.4,1.5c-1.7,4,2.2,1.2,2.2,1.2s3-1.8,7.1-5.1C24.5,13.7,24.1,9.1,24.1,9.1z M7.5,13.1c-0.1,0.2-0.3,0.2-0.5,0.2
	H4.4c-0.2,0-0.4-0.1-0.5-0.3c-0.1-0.1-0.1-0.2-0.1-0.3V8.5V7.3c0-0.3,0.1-0.5,0.2-0.6c0.1-0.1,0.3-0.2,0.5-0.2
	c0.2,0,0.4,0.1,0.6,0.2c0.2,0.1,0.2,0.3,0.2,0.5v4.7H7c0.2,0,0.3,0.1,0.4,0.2c0.1,0.1,0.2,0.3,0.2,0.5C7.6,12.8,7.6,12.9,7.5,13.1z
	 M9.5,12.6c0,0.2-0.1,0.4-0.2,0.5c-0.1,0.1-0.3,0.2-0.5,0.2c-0.2,0-0.4-0.1-0.5-0.2C8.2,13,8.1,12.9,8,12.6V7.2C8,7,8.1,6.8,8.3,6.7
	c0.1-0.1,0.3-0.2,0.5-0.2c0.2,0,0.4,0.1,0.5,0.2c0.2,0.1,0.2,0.3,0.2,0.4V12.6z M16.2,12.8c0,0.2-0.1,0.3-0.2,0.4
	c-0.2,0.1-0.3,0.2-0.5,0.2c-0.1,0-0.3,0-0.4-0.1c-0.1-0.1-0.2-0.2-0.3-0.3l-2.9-3.7v3.5c0,0.2-0.1,0.3-0.2,0.5
	c-0.2,0.1-0.3,0.2-0.5,0.2c-0.2,0-0.3,0-0.4-0.1c-0.1-0.1-0.2-0.3-0.3-0.5V9.5V7.1c0-0.2,0.1-0.3,0.2-0.4c0.2-0.1,0.3-0.2,0.5-0.2
	c0.1,0,0.3,0,0.4,0.1c0.1,0.1,0.2,0.2,0.3,0.3l2.9,3.6V7.1c0-0.2,0.1-0.3,0.2-0.4c0.2-0.1,0.3-0.2,0.5-0.2c0.2,0,0.4,0,0.5,0.1
	c0.1,0.1,0.2,0.2,0.2,0.4V12.8z M20.7,13.1c-0.1,0.1-0.2,0.2-0.4,0.2h-2.8c-0.1,0-0.2-0.1-0.3-0.2C17.1,13,17,12.9,17,12.8V9.3V7.3
	c0-0.2,0.1-0.4,0.2-0.5c0.1-0.1,0.3-0.1,0.4-0.1h2.4c0.2,0,0.4,0.1,0.5,0.3c0.1,0.1,0.2,0.3,0.2,0.5c0,0.2,0,0.3-0.1,0.5
	c-0.1,0.1-0.2,0.2-0.4,0.2h-1.8v1.2h1.6c0.2,0,0.3,0.1,0.4,0.2c0.1,0.1,0.2,0.3,0.2,0.5c0,0.2,0,0.3-0.1,0.5
	c-0.1,0.1-0.2,0.2-0.4,0.2h-1.7v1.3h1.6c0.3,0,0.5,0.1,0.6,0.2c0.1,0.1,0.2,0.3,0.2,0.5C20.9,12.8,20.8,12.9,20.7,13.1z"/>
</svg>
