<svg version="1.1" xmlns="http://www.w3.org/2000/svg" xmlns:xlink="http://www.w3.org/1999/xlink" xmlns:a="http://ns.adobe.com/AdobeSVGViewerExtensions/3.0/" x="0px" y="0px" width="23.1px" height="23.1px" viewBox="0 0 23.1 23.1" style="enable-background:new 0 0 23.1 23.1;" xml:space="preserve">
	<path class="st0" d="M20.2,0H2.9C1.3,0,0,1.3,0,2.9v17.3c0,1.6,1.3,2.9,2.9,2.9h8.7v-8.3H8.9v-3.6h2.8V9.4c0-2.8,2.1-5,4.7-5h2.5
	v4.1h-2.3c-0.6,0-0.8,0.3-0.8,0.8v1.9h3v3.6h-3v8.3h4.4c1.6,0,2.9-1.3,2.9-2.9V2.9C23.1,1.3,21.8,0,20.2,0z"/>
</svg>