<svg version="1.1"
	 xmlns="http://www.w3.org/2000/svg" xmlns:xlink="http://www.w3.org/1999/xlink" xmlns:a="http://ns.adobe.com/AdobeSVGViewerExtensions/3.0/"
	 x="0px" y="0px" width="32.8px" height="21.5px" viewBox="0 0 32.8 21.5" style="enable-background:new 0 0 32.8 21.5;"
	 xml:space="preserve">
<path class="st0" d="M30.3,0H18.9H14H2.6C1.2,0,0,1.2,0,2.6v16.3c0,1.4,1.2,2.6,2.6,2.6H14h4.9h11.4c1.4,0,2.6-1.2,2.6-2.6V2.6
	C32.8,1.2,31.7,0,30.3,0z M22.2,11l-8.2,5.1c-0.6,0.4-1.1,0.1-1.1-0.6V5.6c0-0.7,0.5-1,1.1-0.6l8.2,5.1c0,0,0.3,0.2,0.3,0.5
	C22.5,10.8,22.2,11,22.2,11z"/>
</svg>
