<svg version="1.1" xmlns="http://www.w3.org/2000/svg" xmlns:xlink="http://www.w3.org/1999/xlink" xmlns:a="http://ns.adobe.com/AdobeSVGViewerExtensions/3.0/" x="0px" y="0px" width="23.8px" height="23.8px" viewBox="0 0 23.8 23.8" style="enable-background:new 0 0 23.8 23.8;" xml:space="preserve">
	<g>
		<path class="st0" d="M23.8,7.9c0-1.2-0.1-2.3-0.5-3.5c-0.4-1.2-1.1-2.2-2.1-3c-0.8-0.6-1.7-1-2.6-1.2c-0.9-0.2-1.8-0.2-2.7-0.2
		C13.6,0,11.4,0,9.2,0C8,0,6.8,0,5.6,0.2c-1.1,0.2-2.1,0.6-3,1.3C1,2.7,0.3,4.4,0.1,6.3C0,7.2,0,8.1,0,9.1c0,1.3,0,2.6,0,3.9
		c0,1.4,0,2.7,0.1,4.1c0.1,0.9,0.2,1.8,0.5,2.6c0.3,0.7,0.7,1.4,1.2,2c0.4,0.5,0.9,0.9,1.5,1.2c0.8,0.4,1.6,0.7,2.4,0.8
		c0.3,0.1,0.7,0.1,1,0.1c0.3,0,0.6,0,0.9,0c3.1,0,6.3,0.1,9.4-0.1c0.7,0,1.5-0.2,2.2-0.4c0.9-0.3,1.6-0.7,2.3-1.3
		c1-0.9,1.6-2,1.9-3.3c0.2-0.9,0.2-1.8,0.3-2.8C23.8,13.2,23.8,10.6,23.8,7.9 M21.6,16c0,0.8,0,1.6-0.2,2.3
		c-0.2,0.6-0.4,1.2-0.8,1.7c-0.6,0.8-1.4,1.2-2.4,1.4c-0.6,0.1-1.1,0.2-1.7,0.2c-2.5,0.1-5.1,0.1-7.6,0c-0.8,0-1.7,0-2.5-0.1
		C5.2,21.4,4.1,21,3.2,20c-0.5-0.6-0.8-1.4-0.9-2.2c-0.2-1.1-0.2-2.2-0.2-3.2c0-0.7,0-1.5,0-2.2c0-1.9,0-3.8,0.1-5.8
		c0-0.6,0.1-1.2,0.4-1.7C3,3.8,3.8,3,5,2.6c0.7-0.3,1.4-0.3,2.1-0.4c2.3-0.1,4.6-0.1,6.9-0.1c0.8,0,1.6,0,2.4,0.1
		c0.7,0,1.5,0.1,2.2,0.3c1.6,0.5,2.5,1.6,2.9,3.3c0.1,0.7,0.2,1.4,0.2,2C21.7,10.5,21.7,13.3,21.6,16"/>
		<path class="st0" d="M10.9,5.9C8.6,6.3,7,7.7,6.2,9.8c-0.2,0.4-0.2,0.8-0.3,1.3c-0.1,0.3,0,0.6,0,0.9c0,0.7,0.1,1.3,0.3,2
		c0.3,0.8,0.7,1.4,1.2,2c0.6,0.6,1.2,1.2,2,1.5c1.2,0.5,2.4,0.7,3.7,0.4c0.8-0.2,1.6-0.5,2.3-1c0.7-0.5,1.2-1,1.7-1.7
		c0.5-0.8,0.8-1.7,0.9-2.6c0.1-0.9,0-1.7-0.3-2.6C16.8,7.2,13.9,5.3,10.9,5.9 M15.2,14c-0.1,0.2-0.3,0.4-0.5,0.6
		c-0.2,0.2-0.5,0.4-0.7,0.6c-1.8,1.1-4.1,0.7-5.3-1c-0.5-0.6-0.7-1.4-0.8-2.2c-0.1-1.8,1.1-3.5,2.9-4c2.3-0.6,4.6,0.9,5,3.3
		C16,12.3,15.8,13.2,15.2,14"/>
		<path class="st0" d="M18.2,4.1c-0.8,0-1.4,0.7-1.4,1.4c0,0.8,0.6,1.4,1.4,1.4c0.8,0,1.4-0.7,1.4-1.4C19.7,4.8,19,4.1,18.2,4.1"/>
	</g>
</svg>